<mxfile host="app.diagrams.net" modified="2022-09-28T11:43:34.176Z" agent="5.0 (Windows NT 10.0; Win64; x64) AppleWebKit/537.36 (KHTML, like Gecko) Chrome/104.0.5112.102 Safari/537.36 OPR/90.0.4480.117" etag="Z4zUU7CVfR-0VFUqdizD" version="20.3.6" type="github">
  <diagram id="3CA-EMvKnRCY9wWIvVBK" name="Page-1">
    <mxGraphModel dx="1381" dy="774" grid="1" gridSize="10" guides="1" tooltips="1" connect="1" arrows="1" fold="1" page="1" pageScale="1" pageWidth="850" pageHeight="1100" math="0" shadow="0">
      <root>
        <mxCell id="0" />
        <mxCell id="1" parent="0" />
        <mxCell id="bCr5Xyj7cTLU7bMIuOir-14" value="" style="rounded=1;whiteSpace=wrap;html=1;fillColor=#f5f5f5;strokeColor=#666666;fontColor=#333333;" vertex="1" parent="1">
          <mxGeometry x="40" y="80" width="980" height="230" as="geometry" />
        </mxCell>
        <mxCell id="bCr5Xyj7cTLU7bMIuOir-15" value="Equipos" style="rounded=0;whiteSpace=wrap;html=1;fillColor=#d5e8d4;strokeColor=#82b366;" vertex="1" parent="1">
          <mxGeometry x="150" y="130" width="120" height="60" as="geometry" />
        </mxCell>
        <mxCell id="bCr5Xyj7cTLU7bMIuOir-17" style="edgeStyle=orthogonalEdgeStyle;rounded=0;orthogonalLoop=1;jettySize=auto;html=1;" edge="1" parent="1" source="bCr5Xyj7cTLU7bMIuOir-18" target="bCr5Xyj7cTLU7bMIuOir-19">
          <mxGeometry relative="1" as="geometry" />
        </mxCell>
        <mxCell id="bCr5Xyj7cTLU7bMIuOir-18" value="tiene" style="rhombus;whiteSpace=wrap;html=1;fillColor=#e1d5e7;strokeColor=#9673a6;" vertex="1" parent="1">
          <mxGeometry x="330" y="120" width="80" height="80" as="geometry" />
        </mxCell>
        <mxCell id="bCr5Xyj7cTLU7bMIuOir-19" value="Jugadores" style="rounded=0;whiteSpace=wrap;html=1;fillColor=#d5e8d4;strokeColor=#82b366;" vertex="1" parent="1">
          <mxGeometry x="470" y="130" width="120" height="60" as="geometry" />
        </mxCell>
        <mxCell id="bCr5Xyj7cTLU7bMIuOir-20" style="edgeStyle=orthogonalEdgeStyle;rounded=0;orthogonalLoop=1;jettySize=auto;html=1;fontColor=#FF0080;" edge="1" parent="1" source="bCr5Xyj7cTLU7bMIuOir-22" target="bCr5Xyj7cTLU7bMIuOir-23">
          <mxGeometry relative="1" as="geometry" />
        </mxCell>
        <mxCell id="bCr5Xyj7cTLU7bMIuOir-21" style="edgeStyle=orthogonalEdgeStyle;rounded=0;orthogonalLoop=1;jettySize=auto;html=1;fontColor=#FF0080;" edge="1" parent="1" source="bCr5Xyj7cTLU7bMIuOir-22" target="bCr5Xyj7cTLU7bMIuOir-19">
          <mxGeometry relative="1" as="geometry" />
        </mxCell>
        <mxCell id="bCr5Xyj7cTLU7bMIuOir-22" value="juega" style="rhombus;whiteSpace=wrap;html=1;fillColor=#e1d5e7;strokeColor=#9673a6;" vertex="1" parent="1">
          <mxGeometry x="650" y="120" width="80" height="80" as="geometry" />
        </mxCell>
        <mxCell id="bCr5Xyj7cTLU7bMIuOir-23" value="Partido" style="rounded=0;whiteSpace=wrap;html=1;fillColor=#d5e8d4;strokeColor=#82b366;" vertex="1" parent="1">
          <mxGeometry x="790" y="130" width="120" height="60" as="geometry" />
        </mxCell>
        <mxCell id="bCr5Xyj7cTLU7bMIuOir-24" value="&lt;font color=&quot;#ff0080&quot;&gt;1:1&lt;/font&gt;" style="text;html=1;strokeColor=none;fillColor=none;align=center;verticalAlign=middle;whiteSpace=wrap;rounded=0;" vertex="1" parent="1">
          <mxGeometry x="270" y="130" width="60" height="30" as="geometry" />
        </mxCell>
        <mxCell id="bCr5Xyj7cTLU7bMIuOir-25" value="&lt;font color=&quot;#ff0080&quot;&gt;1:N&lt;/font&gt;" style="text;html=1;strokeColor=none;fillColor=none;align=center;verticalAlign=middle;whiteSpace=wrap;rounded=0;" vertex="1" parent="1">
          <mxGeometry x="410" y="130" width="60" height="30" as="geometry" />
        </mxCell>
        <mxCell id="bCr5Xyj7cTLU7bMIuOir-26" value="1:N" style="text;html=1;strokeColor=none;fillColor=none;align=center;verticalAlign=middle;whiteSpace=wrap;rounded=0;fontColor=#FF0080;" vertex="1" parent="1">
          <mxGeometry x="340" y="90" width="60" height="30" as="geometry" />
        </mxCell>
        <mxCell id="bCr5Xyj7cTLU7bMIuOir-27" value="0:N" style="text;html=1;strokeColor=none;fillColor=none;align=center;verticalAlign=middle;whiteSpace=wrap;rounded=0;fontColor=#FF0080;" vertex="1" parent="1">
          <mxGeometry x="730" y="130" width="60" height="30" as="geometry" />
        </mxCell>
        <mxCell id="bCr5Xyj7cTLU7bMIuOir-28" value="1:N" style="text;html=1;strokeColor=none;fillColor=none;align=center;verticalAlign=middle;whiteSpace=wrap;rounded=0;fontColor=#FF0080;" vertex="1" parent="1">
          <mxGeometry x="590" y="130" width="60" height="30" as="geometry" />
        </mxCell>
        <mxCell id="bCr5Xyj7cTLU7bMIuOir-29" value="N:M" style="text;html=1;strokeColor=none;fillColor=none;align=center;verticalAlign=middle;whiteSpace=wrap;rounded=0;fontColor=#FF0080;" vertex="1" parent="1">
          <mxGeometry x="660" y="90" width="60" height="30" as="geometry" />
        </mxCell>
        <mxCell id="bCr5Xyj7cTLU7bMIuOir-30" value="" style="endArrow=none;html=1;rounded=0;fontColor=#FF0080;" edge="1" parent="1" target="bCr5Xyj7cTLU7bMIuOir-31">
          <mxGeometry width="50" height="50" relative="1" as="geometry">
            <mxPoint x="490" y="190" as="sourcePoint" />
            <mxPoint x="490" y="190" as="targetPoint" />
          </mxGeometry>
        </mxCell>
        <mxCell id="bCr5Xyj7cTLU7bMIuOir-31" value="&lt;font color=&quot;#000000&quot;&gt;id_jugador&lt;/font&gt;" style="ellipse;whiteSpace=wrap;html=1;fillColor=#f8cecc;strokeColor=#b85450;" vertex="1" parent="1">
          <mxGeometry x="380" y="200" width="120" height="40" as="geometry" />
        </mxCell>
        <mxCell id="bCr5Xyj7cTLU7bMIuOir-32" value="nombre" style="ellipse;whiteSpace=wrap;html=1;fillColor=#ffe6cc;strokeColor=#d79b00;" vertex="1" parent="1">
          <mxGeometry x="470" y="250" width="120" height="40" as="geometry" />
        </mxCell>
        <mxCell id="bCr5Xyj7cTLU7bMIuOir-33" value="" style="endArrow=none;html=1;rounded=0;fontColor=#000000;exitX=0.5;exitY=0;exitDx=0;exitDy=0;entryX=0.5;entryY=1;entryDx=0;entryDy=0;" edge="1" parent="1" source="bCr5Xyj7cTLU7bMIuOir-32" target="bCr5Xyj7cTLU7bMIuOir-19">
          <mxGeometry width="50" height="50" relative="1" as="geometry">
            <mxPoint x="484" y="240" as="sourcePoint" />
            <mxPoint x="534" y="190" as="targetPoint" />
          </mxGeometry>
        </mxCell>
        <mxCell id="bCr5Xyj7cTLU7bMIuOir-34" value="" style="endArrow=none;html=1;rounded=0;fontColor=#000000;entryX=0.859;entryY=1.006;entryDx=0;entryDy=0;entryPerimeter=0;" edge="1" parent="1" source="bCr5Xyj7cTLU7bMIuOir-35" target="bCr5Xyj7cTLU7bMIuOir-19">
          <mxGeometry width="50" height="50" relative="1" as="geometry">
            <mxPoint x="630" y="170" as="sourcePoint" />
            <mxPoint x="680" y="220" as="targetPoint" />
          </mxGeometry>
        </mxCell>
        <mxCell id="bCr5Xyj7cTLU7bMIuOir-35" value="telÃ©fono" style="ellipse;whiteSpace=wrap;html=1;fillColor=#ffe6cc;strokeColor=#d79b00;" vertex="1" parent="1">
          <mxGeometry x="560" y="200" width="120" height="40" as="geometry" />
        </mxCell>
        <mxCell id="bCr5Xyj7cTLU7bMIuOir-36" value="identificador" style="ellipse;whiteSpace=wrap;html=1;fillColor=#f8cecc;strokeColor=#b85450;" vertex="1" parent="1">
          <mxGeometry x="700" y="200" width="120" height="40" as="geometry" />
        </mxCell>
        <mxCell id="bCr5Xyj7cTLU7bMIuOir-37" value="fecha" style="ellipse;whiteSpace=wrap;html=1;fillColor=#ffe6cc;strokeColor=#d79b00;" vertex="1" parent="1">
          <mxGeometry x="790" y="240" width="120" height="40" as="geometry" />
        </mxCell>
        <mxCell id="bCr5Xyj7cTLU7bMIuOir-38" value="campeonato" style="ellipse;whiteSpace=wrap;html=1;fillColor=#ffe6cc;strokeColor=#d79b00;" vertex="1" parent="1">
          <mxGeometry x="880" y="200" width="120" height="40" as="geometry" />
        </mxCell>
        <mxCell id="bCr5Xyj7cTLU7bMIuOir-39" value="" style="endArrow=none;html=1;rounded=0;fontColor=#000000;entryX=1;entryY=0;entryDx=0;entryDy=0;exitX=0.25;exitY=1;exitDx=0;exitDy=0;" edge="1" parent="1" source="bCr5Xyj7cTLU7bMIuOir-23" target="bCr5Xyj7cTLU7bMIuOir-36">
          <mxGeometry width="50" height="50" relative="1" as="geometry">
            <mxPoint x="770" y="270" as="sourcePoint" />
            <mxPoint x="820" y="220" as="targetPoint" />
          </mxGeometry>
        </mxCell>
        <mxCell id="bCr5Xyj7cTLU7bMIuOir-40" value="" style="endArrow=none;html=1;rounded=0;fontColor=#000000;entryX=0.5;entryY=0;entryDx=0;entryDy=0;exitX=0.5;exitY=1;exitDx=0;exitDy=0;" edge="1" parent="1" source="bCr5Xyj7cTLU7bMIuOir-23" target="bCr5Xyj7cTLU7bMIuOir-37">
          <mxGeometry width="50" height="50" relative="1" as="geometry">
            <mxPoint x="720" y="310" as="sourcePoint" />
            <mxPoint x="770" y="260" as="targetPoint" />
          </mxGeometry>
        </mxCell>
        <mxCell id="bCr5Xyj7cTLU7bMIuOir-41" value="" style="endArrow=none;html=1;rounded=0;fontColor=#000000;entryX=0.237;entryY=0.018;entryDx=0;entryDy=0;entryPerimeter=0;exitX=0.75;exitY=1;exitDx=0;exitDy=0;" edge="1" parent="1" source="bCr5Xyj7cTLU7bMIuOir-23" target="bCr5Xyj7cTLU7bMIuOir-38">
          <mxGeometry width="50" height="50" relative="1" as="geometry">
            <mxPoint x="800" y="350" as="sourcePoint" />
            <mxPoint x="850" y="300" as="targetPoint" />
          </mxGeometry>
        </mxCell>
        <mxCell id="bCr5Xyj7cTLU7bMIuOir-47" value="" style="endArrow=none;html=1;rounded=0;exitX=1;exitY=0.5;exitDx=0;exitDy=0;entryX=0;entryY=0.5;entryDx=0;entryDy=0;" edge="1" parent="1" source="bCr5Xyj7cTLU7bMIuOir-15" target="bCr5Xyj7cTLU7bMIuOir-18">
          <mxGeometry width="50" height="50" relative="1" as="geometry">
            <mxPoint x="300" y="150" as="sourcePoint" />
            <mxPoint x="350" y="100" as="targetPoint" />
          </mxGeometry>
        </mxCell>
        <mxCell id="bCr5Xyj7cTLU7bMIuOir-48" value="&lt;font color=&quot;#000000&quot;&gt;identificador&lt;/font&gt;" style="ellipse;whiteSpace=wrap;html=1;fillColor=#f8cecc;strokeColor=#b85450;" vertex="1" parent="1">
          <mxGeometry x="60" y="200" width="120" height="40" as="geometry" />
        </mxCell>
        <mxCell id="bCr5Xyj7cTLU7bMIuOir-49" value="nombre" style="ellipse;whiteSpace=wrap;html=1;fillColor=#ffe6cc;strokeColor=#d79b00;" vertex="1" parent="1">
          <mxGeometry x="150" y="250" width="120" height="40" as="geometry" />
        </mxCell>
        <mxCell id="bCr5Xyj7cTLU7bMIuOir-50" value="capitÃ¡n" style="ellipse;whiteSpace=wrap;html=1;fillColor=#ffe6cc;strokeColor=#d79b00;" vertex="1" parent="1">
          <mxGeometry x="240" y="200" width="120" height="40" as="geometry" />
        </mxCell>
        <mxCell id="bCr5Xyj7cTLU7bMIuOir-51" value="" style="endArrow=none;html=1;rounded=0;entryX=0.727;entryY=0.054;entryDx=0;entryDy=0;exitX=0.199;exitY=1.002;exitDx=0;exitDy=0;exitPerimeter=0;entryPerimeter=0;" edge="1" parent="1" source="bCr5Xyj7cTLU7bMIuOir-15" target="bCr5Xyj7cTLU7bMIuOir-48">
          <mxGeometry width="50" height="50" relative="1" as="geometry">
            <mxPoint x="150" y="170" as="sourcePoint" />
            <mxPoint x="200" y="120" as="targetPoint" />
          </mxGeometry>
        </mxCell>
        <mxCell id="bCr5Xyj7cTLU7bMIuOir-53" value="" style="endArrow=none;html=1;rounded=0;" edge="1" parent="1" source="bCr5Xyj7cTLU7bMIuOir-49">
          <mxGeometry width="50" height="50" relative="1" as="geometry">
            <mxPoint x="170" y="240" as="sourcePoint" />
            <mxPoint x="210" y="190" as="targetPoint" />
          </mxGeometry>
        </mxCell>
        <mxCell id="bCr5Xyj7cTLU7bMIuOir-54" value="" style="endArrow=none;html=1;rounded=0;entryX=0.268;entryY=0.076;entryDx=0;entryDy=0;entryPerimeter=0;exitX=0.75;exitY=1;exitDx=0;exitDy=0;" edge="1" parent="1" source="bCr5Xyj7cTLU7bMIuOir-15" target="bCr5Xyj7cTLU7bMIuOir-50">
          <mxGeometry width="50" height="50" relative="1" as="geometry">
            <mxPoint x="320" y="260" as="sourcePoint" />
            <mxPoint x="370" y="210" as="targetPoint" />
          </mxGeometry>
        </mxCell>
        <mxCell id="bCr5Xyj7cTLU7bMIuOir-55" value="" style="endArrow=none;html=1;rounded=0;entryX=0.5;entryY=1;entryDx=0;entryDy=0;exitX=0.5;exitY=0;exitDx=0;exitDy=0;" edge="1" parent="1" source="bCr5Xyj7cTLU7bMIuOir-56" target="bCr5Xyj7cTLU7bMIuOir-22">
          <mxGeometry width="50" height="50" relative="1" as="geometry">
            <mxPoint x="690" y="240" as="sourcePoint" />
            <mxPoint x="670" y="210" as="targetPoint" />
          </mxGeometry>
        </mxCell>
        <mxCell id="bCr5Xyj7cTLU7bMIuOir-56" value="posiciÃ³n" style="ellipse;whiteSpace=wrap;html=1;fillColor=#ffe6cc;strokeColor=#d79b00;" vertex="1" parent="1">
          <mxGeometry x="630" y="250" width="120" height="40" as="geometry" />
        </mxCell>
      </root>
    </mxGraphModel>
  </diagram>
</mxfile>
